<svg xmlns="http://www.w3.org/2000/svg" xmlns:xlink="http://www.w3.org/1999/xlink" width="500" zoomAndPan="magnify" viewBox="0 0 375 374.999991" height="500" preserveAspectRatio="xMidYMid meet" version="1.0"><path fill="#b04190" d="M 210.976562 174.867188 L 363.488281 174.867188 C 369.917969 174.867188 375 169.332031 374.328125 162.976562 C 365.429688 77.453125 297.546875 9.570312 212.023438 0.671875 C 205.667969 0 200.132812 5.082031 200.132812 11.511719 L 200.132812 164.023438 C 200.132812 170.007812 204.992188 174.867188 210.976562 174.867188 Z M 210.976562 174.867188 " fill-opacity="1" fill-rule="nonzero"/><path fill="#f59f00" d="M 174.867188 174.867188 L 174.867188 22.277344 C 174.867188 15.847656 169.332031 10.765625 162.976562 11.4375 C 77.453125 20.410156 9.570312 88.292969 0.671875 173.820312 C 0 180.171875 5.082031 185.707031 11.511719 185.707031 L 164.023438 185.707031 C 170.007812 185.707031 174.867188 180.847656 174.867188 174.867188 Z M 174.867188 174.867188 " fill-opacity="1" fill-rule="nonzero"/><path fill="#009ee2" d="M 189.292969 210.976562 L 189.292969 363.488281 C 189.292969 369.917969 194.828125 375 201.179688 374.328125 C 286.707031 365.429688 354.589844 297.546875 363.488281 212.023438 C 364.160156 205.667969 359.074219 200.132812 352.648438 200.132812 L 200.132812 200.132812 C 194.152344 200.132812 189.292969 204.992188 189.292969 210.976562 Z M 189.292969 210.976562 " fill-opacity="1" fill-rule="nonzero"/><path fill="#e5007e" d="M 164.023438 200.132812 L 11.511719 200.132812 C 5.082031 200.132812 0 205.667969 0.671875 212.023438 C 9.570312 297.546875 77.453125 365.429688 162.976562 374.328125 C 169.332031 375 174.867188 369.917969 174.867188 363.488281 L 174.867188 210.976562 C 174.867188 204.992188 170.007812 200.132812 164.023438 200.132812 Z M 164.023438 200.132812 " fill-opacity="1" fill-rule="nonzero"/><path fill="#ffffff" d="M 275.492188 87.84375 C 269.363281 87.84375 264.429688 92.703125 264.128906 98.757812 L 276.316406 95.46875 C 277.289062 95.246094 278.257812 95.46875 278.933594 96.140625 C 279.605469 96.816406 279.902344 97.785156 279.605469 98.757812 L 276.464844 110.570312 C 282.371094 110.121094 287.082031 105.261719 287.082031 99.28125 C 286.933594 93.003906 281.847656 87.84375 275.492188 87.84375 Z M 275.492188 87.84375 " fill-opacity="1" fill-rule="nonzero"/><path fill="#ffffff" d="M 272.203125 115.878906 L 276.988281 98.160156 L 259.195312 102.871094 L 262.859375 106.535156 L 242.597656 126.792969 L 236.765625 125.148438 L 222.710938 139.355469 L 231.460938 141.894531 L 232.730469 143.167969 L 235.347656 151.914062 L 249.476562 137.710938 L 247.980469 132.773438 L 268.539062 112.214844 Z M 272.203125 115.878906 " fill-opacity="1" fill-rule="nonzero"/><path fill="#ffffff" d="M 275.492188 71.171875 C 259.941406 71.171875 247.382812 83.808594 247.382812 99.355469 C 247.382812 104.738281 248.953125 109.75 251.644531 114.085938 L 257.550781 108.179688 C 256.207031 105.488281 255.457031 102.496094 255.457031 99.355469 C 255.457031 88.292969 264.503906 79.246094 275.566406 79.246094 C 286.632812 79.246094 295.679688 88.292969 295.679688 99.355469 C 295.679688 110.421875 286.632812 119.46875 275.566406 119.46875 C 272.503906 119.46875 269.660156 118.71875 267.121094 117.523438 L 261.214844 123.429688 C 265.402344 125.972656 270.335938 127.46875 275.566406 127.46875 C 291.117188 127.46875 303.679688 114.832031 303.679688 99.355469 C 303.601562 83.808594 290.96875 71.171875 275.492188 71.171875 Z M 275.492188 71.171875 " fill-opacity="1" fill-rule="nonzero"/><path fill="#ffffff" d="M 275.492188 55.996094 C 251.570312 55.996094 232.132812 75.433594 232.132812 99.355469 C 232.132812 109 235.347656 117.75 240.730469 125 L 246.410156 119.316406 C 242.523438 113.636719 240.207031 106.757812 240.207031 99.355469 C 240.207031 79.84375 256.054688 63.996094 275.566406 63.996094 C 295.082031 63.996094 310.929688 79.84375 310.929688 99.355469 C 310.929688 118.871094 295.082031 134.71875 275.566406 134.71875 C 268.316406 134.71875 261.589844 132.476562 255.90625 128.738281 L 250.222656 134.417969 C 257.328125 139.578125 266.074219 142.71875 275.566406 142.71875 C 299.492188 142.71875 318.929688 123.28125 318.929688 99.355469 C 318.78125 75.433594 299.34375 55.996094 275.492188 55.996094 Z M 275.492188 55.996094 " fill-opacity="1" fill-rule="nonzero"/><path fill="#ffffff" d="M 248.953125 267.792969 L 222.863281 248.132812 L 223.308594 240.28125 L 247.609375 258.671875 L 269.214844 229.589844 L 274.445312 233.476562 Z M 248.953125 267.792969 " fill-opacity="1" fill-rule="nonzero"/><path fill="#ffffff" d="M 256.652344 263.234375 C 256.652344 267.867188 252.914062 271.605469 248.28125 271.605469 C 243.644531 271.605469 239.90625 267.867188 239.90625 263.234375 C 239.90625 258.597656 243.644531 254.859375 248.28125 254.859375 C 252.914062 254.859375 256.652344 258.597656 256.652344 263.234375 Z M 256.652344 263.234375 " fill-opacity="1" fill-rule="nonzero"/><path fill="#ffffff" d="M 281.847656 231.535156 C 281.847656 236.167969 278.109375 239.90625 273.476562 239.90625 C 268.839844 239.90625 265.101562 236.167969 265.101562 231.535156 C 265.101562 226.898438 268.839844 223.160156 273.476562 223.160156 C 278.109375 223.085938 281.847656 226.898438 281.847656 231.535156 Z M 281.847656 231.535156 " fill-opacity="1" fill-rule="nonzero"/><path fill="#ffffff" d="M 231.535156 244.242188 C 231.535156 248.878906 227.796875 252.617188 223.160156 252.617188 C 218.527344 252.617188 214.789062 248.878906 214.789062 244.242188 C 214.789062 239.609375 218.527344 235.871094 223.160156 235.871094 C 227.722656 235.796875 231.535156 239.609375 231.535156 244.242188 Z M 231.535156 244.242188 " fill-opacity="1" fill-rule="nonzero"/><path fill="#ffffff" d="M 214.636719 261.960938 L 231.535156 261.960938 L 231.535156 310.332031 L 214.636719 310.332031 Z M 214.636719 261.960938 " fill-opacity="1" fill-rule="nonzero"/><path fill="#ffffff" d="M 239.535156 278.933594 L 256.429688 278.933594 L 256.429688 309.808594 L 239.535156 309.808594 Z M 239.535156 278.933594 " fill-opacity="1" fill-rule="nonzero"/><path fill="#ffffff" d="M 265.027344 249.699219 L 281.921875 249.699219 L 281.921875 310.257812 L 265.027344 310.257812 Z M 265.027344 249.699219 " fill-opacity="1" fill-rule="nonzero"/><path fill="#ffffff" d="M 134.269531 237.289062 L 134.269531 228.394531 C 134.269531 226.078125 132.328125 224.132812 130.007812 224.132812 L 93.449219 224.132812 C 93.300781 224.132812 93.226562 224.207031 93.152344 224.207031 C 92.777344 224.207031 92.40625 224.28125 92.03125 224.433594 C 91.882812 224.507812 91.730469 224.507812 91.582031 224.582031 C 91.207031 224.730469 90.910156 224.957031 90.609375 225.253906 C 90.535156 225.328125 90.460938 225.402344 90.386719 225.476562 C 90.386719 225.476562 90.3125 225.476562 90.3125 225.554688 L 70.796875 246.261719 C 70.648438 246.410156 70.574219 246.636719 70.425781 246.785156 C 70.273438 247.007812 70.050781 247.308594 69.902344 247.609375 C 69.75 247.90625 69.75 248.28125 69.675781 248.578125 C 69.675781 248.730469 69.527344 248.953125 69.527344 249.175781 L 69.527344 303.753906 C 69.527344 306.144531 71.472656 308.015625 73.789062 308.015625 L 129.933594 308.015625 C 132.25 308.015625 134.195312 306.144531 134.195312 303.753906 L 134.195312 294.257812 C 131.355469 294.632812 128.4375 294.484375 125.671875 293.960938 L 125.671875 299.492188 L 78.125 299.492188 L 78.125 253.4375 L 93.375 253.4375 C 95.695312 253.4375 97.636719 251.496094 97.636719 249.175781 L 97.636719 232.730469 L 125.671875 232.730469 L 125.671875 237.738281 C 128.589844 237.066406 131.429688 236.992188 134.269531 237.289062 Z M 134.269531 237.289062 " fill-opacity="1" fill-rule="nonzero"/><path fill="#ffffff" d="M 103.320312 259.195312 C 102.648438 261.960938 102.421875 264.878906 102.648438 267.71875 L 89.265625 267.71875 C 86.945312 267.71875 85.003906 265.773438 85.003906 263.457031 C 85.003906 261.140625 86.945312 259.195312 89.265625 259.195312 Z M 103.320312 259.195312 " fill-opacity="1" fill-rule="nonzero"/><path fill="#ffffff" d="M 106.609375 280.503906 L 89.265625 280.503906 C 86.945312 280.503906 85.003906 278.558594 85.003906 276.242188 C 85.003906 273.921875 86.945312 271.980469 89.265625 271.980469 L 103.246094 271.980469 C 103.917969 274.894531 105.039062 277.8125 106.609375 280.503906 Z M 106.609375 280.503906 " fill-opacity="1" fill-rule="nonzero"/><path fill="#ffffff" d="M 118.273438 291.34375 C 117.523438 292.464844 116.179688 293.285156 114.683594 293.285156 L 89.265625 293.285156 C 86.945312 293.285156 85.003906 291.34375 85.003906 289.023438 C 85.003906 286.707031 86.945312 284.765625 89.265625 284.765625 L 109.675781 284.765625 C 112.140625 287.53125 115.132812 289.773438 118.273438 291.34375 Z M 118.273438 291.34375 " fill-opacity="1" fill-rule="nonzero"/><path fill="#ffffff" d="M 156.996094 291.042969 L 146.230469 275.867188 C 145.035156 277.660156 143.539062 279.230469 141.671875 280.578125 C 139.800781 281.921875 137.785156 282.746094 135.765625 283.269531 L 146.53125 298.445312 C 147.800781 300.238281 149.746094 301.136719 151.765625 301.136719 C 153.035156 301.136719 154.304688 300.761719 155.425781 299.941406 C 158.34375 297.996094 159.015625 293.960938 156.996094 291.042969 Z M 156.996094 291.042969 " fill-opacity="1" fill-rule="nonzero"/><path fill="#ffffff" d="M 131.28125 288.277344 C 130.007812 288.277344 128.738281 288.203125 127.46875 287.976562 C 121.5625 286.933594 116.402344 283.71875 112.890625 278.78125 C 109.449219 273.847656 108.03125 267.941406 109.074219 262.035156 C 110.121094 256.128906 113.335938 250.972656 118.273438 247.457031 C 128.363281 240.28125 142.417969 242.671875 149.597656 252.839844 C 153.035156 257.773438 154.457031 263.679688 153.410156 269.585938 C 152.363281 275.492188 149.148438 280.652344 144.214844 284.164062 C 140.402344 286.855469 135.914062 288.277344 131.28125 288.277344 Z M 131.207031 251.867188 C 128.4375 251.867188 125.597656 252.691406 123.207031 254.410156 C 120.140625 256.578125 118.121094 259.792969 117.523438 263.457031 C 116.925781 267.121094 117.75 270.785156 119.917969 273.847656 C 122.085938 276.914062 125.300781 278.933594 128.960938 279.53125 C 132.625 280.203125 136.289062 279.304688 139.355469 277.136719 C 142.417969 274.96875 144.4375 271.753906 145.035156 268.09375 C 145.632812 264.429688 144.8125 260.765625 142.644531 257.699219 C 139.878906 253.886719 135.542969 251.867188 131.207031 251.867188 Z M 131.207031 251.867188 " fill-opacity="1" fill-rule="nonzero"/><path fill="#ffffff" d="M 74.238281 87.246094 C 73.414062 88.066406 71.996094 88.066406 71.171875 87.246094 L 64.519531 80.59375 C 63.695312 79.769531 63.695312 78.347656 64.519531 77.527344 C 65.339844 76.703125 66.761719 76.703125 67.582031 77.527344 L 74.238281 84.179688 C 75.132812 85.078125 75.132812 86.421875 74.238281 87.246094 Z M 74.238281 87.246094 " fill-opacity="1" fill-rule="nonzero"/><path fill="#ffffff" d="M 61.828125 111.167969 C 61.378906 111.617188 60.707031 111.917969 59.957031 111.765625 L 50.539062 110.421875 C 49.34375 110.273438 48.519531 109.152344 48.667969 107.953125 C 48.820312 106.757812 49.941406 105.9375 51.136719 106.085938 L 60.554688 107.429688 C 61.753906 107.582031 62.574219 108.703125 62.425781 109.898438 C 62.425781 110.421875 62.199219 110.871094 61.828125 111.167969 Z M 61.828125 111.167969 " fill-opacity="1" fill-rule="nonzero"/><path fill="#ffffff" d="M 65.714844 137.410156 C 65.566406 137.558594 65.414062 137.710938 65.191406 137.785156 L 56.667969 142.195312 C 55.621094 142.71875 54.277344 142.34375 53.753906 141.296875 C 53.230469 140.25 53.601562 138.90625 54.648438 138.382812 L 63.171875 133.972656 C 64.21875 133.449219 65.566406 133.820312 66.089844 134.867188 C 66.535156 135.765625 66.386719 136.738281 65.714844 137.410156 Z M 65.714844 137.410156 " fill-opacity="1" fill-rule="nonzero"/><path fill="#ffffff" d="M 151.539062 93.078125 C 151.390625 93.226562 151.167969 93.375 150.941406 93.449219 L 142.34375 97.710938 C 141.296875 98.234375 139.953125 97.785156 139.429688 96.742188 C 138.90625 95.695312 139.355469 94.347656 140.402344 93.824219 L 149 89.5625 C 150.042969 89.039062 151.390625 89.488281 151.914062 90.535156 C 152.4375 91.359375 152.214844 92.40625 151.539062 93.078125 Z M 151.539062 93.078125 " fill-opacity="1" fill-rule="nonzero"/><path fill="#ffffff" d="M 124.402344 78.722656 C 123.730469 79.394531 122.683594 79.546875 121.859375 79.097656 C 120.8125 78.574219 120.363281 77.226562 120.964844 76.179688 L 125.523438 67.359375 C 126.046875 66.3125 127.390625 65.863281 128.4375 66.460938 C 129.484375 66.984375 129.933594 68.332031 129.335938 69.378906 L 124.777344 78.199219 C 124.699219 78.425781 124.550781 78.574219 124.402344 78.722656 Z M 124.402344 78.722656 " fill-opacity="1" fill-rule="nonzero"/><path fill="#ffffff" d="M 80.070312 164.625 C 79.394531 165.296875 78.425781 165.445312 77.527344 165.070312 C 76.480469 164.546875 75.957031 163.203125 76.554688 162.15625 L 80.742188 153.558594 C 81.265625 152.4375 82.609375 151.988281 83.65625 152.585938 C 84.703125 153.109375 85.226562 154.457031 84.628906 155.503906 L 80.441406 164.101562 C 80.367188 164.25 80.21875 164.472656 80.070312 164.625 Z M 80.070312 164.625 " fill-opacity="1" fill-rule="nonzero"/><path fill="#ffffff" d="M 98.160156 74.910156 C 97.863281 75.210938 97.414062 75.433594 96.964844 75.507812 C 95.769531 75.65625 94.648438 74.835938 94.496094 73.640625 L 93.152344 64.21875 C 93.003906 63.023438 93.824219 61.902344 95.019531 61.753906 C 96.21875 61.601562 97.339844 62.425781 97.488281 63.621094 L 98.832031 73.042969 C 98.832031 73.714844 98.609375 74.386719 98.160156 74.910156 Z M 98.160156 74.910156 " fill-opacity="1" fill-rule="nonzero"/><path fill="#ffffff" d="M 76.929688 90.535156 C 69.601562 97.863281 65.191406 106.832031 64.445312 115.878906 C 63.621094 125.746094 67.136719 134.867188 74.535156 142.269531 C 82.910156 150.644531 95.84375 156.25 108.402344 156.921875 L 109.972656 156.996094 C 111.46875 156.996094 112.964844 156.921875 114.535156 156.847656 C 116.253906 156.847656 117.523438 157.148438 118.71875 157.671875 L 118.71875 157.894531 L 120.738281 158.941406 C 122.160156 160.210938 123.953125 160.886719 125.746094 160.734375 C 127.542969 160.660156 129.261719 159.839844 130.457031 158.566406 L 145.183594 143.839844 C 147.054688 141.597656 147.351562 138.53125 146.007812 135.765625 C 145.859375 135.464844 145.707031 135.167969 145.484375 134.941406 L 144.960938 134.195312 C 143.617188 132.175781 143.242188 130.53125 143.242188 128.664062 C 144.660156 114.535156 138.90625 98.308594 128.960938 88.21875 C 114.308594 73.566406 93.003906 74.460938 76.929688 90.535156 Z M 122.308594 94.722656 C 130.382812 102.871094 135.167969 116.476562 133.972656 127.914062 L 133.972656 128.4375 C 134.046875 131.207031 134.417969 134.867188 137.035156 138.90625 L 125.148438 150.71875 C 121.039062 148.027344 117.226562 147.652344 114.308594 147.652344 L 113.933594 147.652344 C 113.113281 147.726562 112.289062 147.800781 111.46875 147.800781 L 109.972656 147.800781 C 99.433594 147.578125 88.066406 142.867188 81.039062 135.839844 C 75.65625 130.382812 73.042969 123.804688 73.640625 116.703125 C 74.164062 109.824219 77.675781 102.871094 83.507812 97.039062 C 95.617188 84.851562 111.617188 83.957031 122.308594 94.722656 Z M 122.308594 94.722656 " fill-opacity="1" fill-rule="nonzero"/><path fill="#ffffff" d="M 134.644531 165.894531 L 152.136719 148.476562 C 153.257812 147.351562 153.183594 145.484375 151.988281 144.289062 L 151.464844 143.765625 C 150.269531 142.570312 148.398438 142.492188 147.277344 143.617188 L 129.785156 161.035156 C 128.664062 162.15625 128.738281 164.023438 129.933594 165.222656 L 130.457031 165.746094 C 131.652344 166.941406 133.523438 167.015625 134.644531 165.894531 Z M 134.644531 165.894531 " fill-opacity="1" fill-rule="nonzero"/><path fill="#ffffff" d="M 148.175781 154.53125 L 149.074219 155.425781 C 150.492188 156.847656 150.492188 159.015625 149.222656 160.285156 L 146.53125 162.976562 C 145.261719 164.25 143.015625 164.175781 141.671875 162.828125 L 140.773438 161.933594 Z M 148.175781 154.53125 " fill-opacity="1" fill-rule="nonzero"/><path fill="#ffffff" d="M 115.132812 105.113281 C 112.367188 106.308594 111.46875 109.523438 111.917969 112.140625 C 112.289062 114.457031 113.113281 116.703125 114.011719 118.792969 C 112.890625 120.289062 111.765625 121.710938 110.570312 122.90625 L 110.347656 123.132812 C 110.199219 123.28125 110.121094 123.355469 109.972656 123.503906 C 109.824219 123.652344 109.597656 123.878906 109.449219 124.027344 C 108.179688 125.222656 106.832031 126.34375 105.339844 127.46875 C 103.84375 126.867188 102.347656 126.421875 100.925781 125.972656 C 97.488281 124.851562 94.796875 125.148438 92.925781 126.945312 C 90.910156 128.8125 90.683594 131.804688 92.480469 133.972656 C 94.648438 136.589844 97.863281 137.035156 101.972656 135.242188 C 102.199219 135.167969 102.496094 135.09375 102.796875 134.941406 C 103.019531 134.792969 103.320312 134.644531 103.542969 134.496094 L 103.84375 134.34375 C 104.589844 133.972656 105.339844 133.523438 106.160156 132.925781 C 109.226562 134.269531 112.441406 135.988281 116.101562 138.15625 C 121.636719 141.523438 126.867188 145.632812 131.578125 150.34375 C 131.652344 150.417969 131.804688 150.492188 131.878906 150.644531 L 132.25 150.941406 L 137.632812 145.558594 L 137.335938 145.183594 C 137.261719 145.109375 137.1875 144.960938 137.035156 144.886719 C 132.25 140.25 128.140625 135.019531 124.777344 129.484375 C 122.609375 125.898438 120.886719 122.683594 119.542969 119.691406 C 122.980469 114.535156 123.730469 110.570312 121.785156 107.507812 C 120.441406 105.414062 117.75 103.917969 115.132812 105.113281 Z M 117.824219 111.691406 C 117.75 112.289062 117.523438 112.890625 117.226562 113.636719 C 117.074219 113.113281 116.925781 112.589844 116.777344 112.066406 C 116.550781 111.320312 116.550781 109.972656 116.851562 109.597656 C 116.851562 109.597656 116.925781 109.523438 117.148438 109.523438 C 117.898438 109.75 117.972656 111.019531 117.824219 111.691406 Z M 116.253906 123.953125 C 117.226562 126.046875 118.347656 128.140625 119.46875 130.160156 C 121.113281 132.925781 122.90625 135.691406 124.851562 138.308594 C 120.289062 134.941406 115.503906 132.101562 110.496094 129.785156 C 111.019531 129.335938 111.542969 128.8125 112.140625 128.289062 C 112.515625 127.992188 112.8125 127.617188 113.1875 127.316406 L 113.636719 126.867188 C 114.535156 125.898438 115.429688 124.925781 116.253906 123.953125 Z M 100.179688 130.832031 C 99.433594 131.128906 98.832031 131.355469 98.234375 131.429688 C 97.5625 131.578125 96.292969 131.503906 96.140625 130.832031 C 96.066406 130.605469 96.140625 130.53125 96.21875 130.53125 C 96.589844 130.160156 97.863281 130.234375 98.683594 130.457031 C 99.132812 130.53125 99.65625 130.683594 100.179688 130.832031 Z M 100.179688 130.832031 " fill-opacity="1" fill-rule="nonzero"/></svg>