<svg xmlns="http://www.w3.org/2000/svg" xmlns:xlink="http://www.w3.org/1999/xlink" width="500" zoomAndPan="magnify" viewBox="0 0 375 374.999991" height="500" preserveAspectRatio="xMidYMid meet" version="1.0"><path fill="#000000" d="M 187.644531 211.847656 L 221.660156 211.847656 C 228.050781 218.195312 236.828125 222.144531 246.429688 222.144531 C 255.433594 222.144531 263.523438 218.667969 269.492188 213.019531 C 272.316406 213.792969 273.617188 214.914062 274.828125 216.179688 C 277.144531 218.652344 278.847656 231.175781 291.695312 260.226562 C 304.546875 289.292969 320.921875 295.46875 334.859375 293.925781 C 348.777344 292.382812 365.171875 284.488281 368.734375 252.332031 C 372.296875 220.179688 359.609375 170.394531 350.636719 133.921875 C 341.667969 97.4375 328.523438 83.839844 328.523438 83.839844 C 328.523438 83.839844 326.660156 79.664062 324.957031 78.4375 C 324.414062 78.050781 323.414062 77.664062 321.941406 77.316406 C 321.957031 75.683594 321.921875 74.261719 321.710938 73.964844 C 316.902344 67.105469 291.539062 66.738281 283.199219 68.859375 C 278.636719 70.015625 276.199219 71.332031 276.199219 72.175781 C 276.199219 73.015625 276.199219 76.402344 276.199219 76.402344 C 274.125 76.824219 272.722656 77.753906 268.648438 80.140625 L 242.988281 80.140625 C 242.671875 79.492188 242.234375 78.894531 241.722656 78.386719 C 240.546875 77.210938 238.933594 76.472656 237.179688 76.472656 L 138.144531 76.472656 C 136.375 76.472656 134.757812 77.210938 133.601562 78.386719 C 133.089844 78.894531 132.667969 79.492188 132.335938 80.140625 L 106.675781 80.140625 C 102.601562 77.753906 101.199219 76.839844 99.125 76.402344 C 99.125 76.402344 99.125 73.015625 99.125 72.175781 C 99.125 71.332031 96.703125 70.015625 92.125 68.859375 C 83.785156 66.738281 58.421875 67.105469 53.613281 73.964844 C 53.402344 74.261719 53.347656 75.699219 53.382812 77.316406 C 51.925781 77.664062 50.910156 78.050781 50.367188 78.4375 C 48.664062 79.664062 46.800781 83.839844 46.800781 83.839844 C 46.800781 83.839844 33.65625 97.453125 24.6875 133.921875 C 15.714844 170.410156 3.027344 220.179688 6.589844 252.332031 C 10.152344 284.488281 26.546875 292.363281 40.464844 293.925781 C 54.386719 295.46875 70.777344 289.277344 83.628906 260.226562 C 96.476562 231.160156 98.160156 218.636719 100.496094 216.179688 C 101.6875 214.898438 102.988281 213.792969 105.832031 213.019531 C 111.800781 218.6875 119.890625 222.144531 128.894531 222.144531 C 138.496094 222.144531 147.273438 218.195312 153.664062 211.847656 L 187.679688 211.847656 Z M 287.886719 135.257812 C 287.886719 128.292969 282.234375 122.660156 275.285156 122.660156 C 268.316406 122.660156 262.683594 128.308594 262.683594 135.257812 C 262.683594 142.222656 268.332031 147.851562 275.285156 147.851562 C 282.253906 147.851562 287.886719 142.203125 287.886719 135.257812 Z M 302.121094 149.484375 C 295.152344 149.484375 289.519531 155.132812 289.519531 162.078125 C 289.519531 169.042969 295.171875 174.675781 302.121094 174.675781 C 309.089844 174.675781 314.726562 169.027344 314.726562 162.078125 C 314.726562 155.113281 309.074219 149.484375 302.121094 149.484375 Z M 341.5625 135.257812 C 341.5625 128.292969 335.910156 122.660156 328.960938 122.660156 C 321.992188 122.660156 316.359375 128.308594 316.359375 135.257812 C 316.359375 142.222656 322.011719 147.851562 328.960938 147.851562 C 335.929688 147.851562 341.5625 142.203125 341.5625 135.257812 Z M 302.121094 95.839844 C 295.152344 95.839844 289.519531 101.488281 289.519531 108.433594 C 289.519531 115.398438 295.171875 121.03125 302.121094 121.03125 C 309.089844 121.03125 314.726562 115.382812 314.726562 108.433594 C 314.726562 101.46875 309.074219 95.839844 302.121094 95.839844 Z M 258.90625 87.648438 C 262.4375 87.648438 265.332031 90.523438 265.332031 94.066406 L 265.332031 103.347656 C 265.332031 106.875 262.453125 109.769531 258.90625 109.769531 C 255.378906 109.769531 252.484375 106.890625 252.484375 103.347656 L 252.484375 94.066406 C 252.484375 90.542969 255.363281 87.648438 258.90625 87.648438 Z M 116.363281 87.648438 C 119.890625 87.648438 122.789062 90.523438 122.789062 94.066406 L 122.789062 103.347656 C 122.789062 106.875 119.910156 109.769531 116.363281 109.769531 C 112.835938 109.769531 109.9375 106.890625 109.9375 103.347656 L 109.9375 94.066406 C 109.9375 90.542969 112.816406 87.648438 116.363281 87.648438 Z M 128.738281 160.972656 C 135.355469 160.972656 141.375 163.675781 145.730469 168.007812 C 150.082031 172.359375 152.785156 178.375 152.785156 184.988281 C 152.785156 191.621094 150.082031 197.636719 145.746094 201.988281 C 141.394531 206.335938 135.390625 209.023438 128.753906 209.023438 C 122.121094 209.023438 116.101562 206.320312 111.746094 201.988281 C 107.394531 197.636719 104.707031 191.621094 104.707031 184.988281 C 104.707031 178.359375 107.410156 172.339844 111.746094 167.992188 C 116.101562 163.640625 122.121094 160.957031 128.753906 160.957031 Z M 187.644531 176.289062 C 193.226562 176.289062 197.753906 180.8125 197.753906 186.390625 C 197.753906 191.96875 193.226562 196.496094 187.644531 196.496094 C 182.0625 196.496094 177.535156 191.96875 177.535156 186.390625 C 177.535156 180.8125 182.0625 176.289062 187.644531 176.289062 Z M 229.542969 168.027344 C 233.894531 163.675781 239.917969 160.992188 246.550781 160.992188 C 253.1875 160.992188 259.207031 163.691406 263.558594 168.027344 C 267.914062 172.375 270.597656 178.394531 270.597656 185.023438 C 270.597656 191.65625 267.894531 197.671875 263.558594 202.023438 C 259.207031 206.371094 253.1875 209.058594 246.550781 209.058594 C 239.917969 209.058594 233.894531 206.355469 229.558594 202.023438 C 225.207031 197.671875 222.523438 191.65625 222.523438 185.023438 C 222.523438 178.394531 225.226562 172.375 229.558594 168.042969 Z M 84.3125 159.957031 L 83.222656 150.273438 C 82.941406 147.765625 81.90625 145.695312 80.046875 143.976562 L 76.046875 140.238281 C 74.429688 138.730469 71.921875 138.730469 70.304688 140.238281 L 66.304688 143.976562 C 64.460938 145.695312 63.40625 147.765625 63.125 150.273438 L 62.039062 159.957031 C 61.84375 161.761719 62.355469 163.375 63.566406 164.726562 C 64.777344 166.078125 66.320312 166.78125 68.144531 166.78125 L 78.222656 166.78125 C 80.03125 166.78125 81.589844 166.078125 82.804688 164.726562 C 84.015625 163.375 84.539062 161.746094 84.328125 159.957031 Z M 97.863281 124.136719 L 88.175781 125.222656 C 85.664062 125.503906 83.59375 126.539062 81.871094 128.398438 L 78.132812 132.398438 C 76.625 134.011719 76.625 136.519531 78.132812 138.132812 L 81.871094 142.132812 C 83.59375 143.976562 85.664062 145.027344 88.175781 145.308594 L 97.863281 146.394531 C 99.652344 146.589844 101.285156 146.082031 102.636719 144.871094 C 103.988281 143.660156 104.691406 142.097656 104.691406 140.292969 L 104.691406 130.222656 C 104.691406 128.414062 103.988281 126.855469 102.636719 125.644531 C 101.285156 124.433594 99.652344 123.925781 97.863281 124.117188 Z M 84.3125 110.59375 L 83.222656 120.277344 C 82.941406 122.785156 81.90625 124.855469 80.046875 126.574219 L 76.046875 130.292969 C 74.429688 131.800781 71.921875 131.800781 70.304688 130.292969 L 66.304688 126.574219 C 64.460938 124.855469 63.40625 122.785156 63.125 120.277344 L 62.039062 110.59375 C 61.84375 108.804688 62.355469 107.171875 63.566406 105.820312 C 64.777344 104.46875 66.320312 103.769531 68.144531 103.769531 L 78.222656 103.769531 C 80.03125 103.769531 81.589844 104.46875 82.804688 105.820312 C 84.015625 107.171875 84.539062 108.804688 84.328125 110.59375 Z M 48.46875 124.136719 L 58.175781 125.222656 C 60.6875 125.503906 62.757812 126.539062 64.476562 128.398438 L 68.214844 132.398438 C 69.726562 134.011719 69.726562 136.519531 68.214844 138.132812 L 64.476562 142.132812 C 62.757812 143.976562 60.6875 145.027344 58.175781 145.308594 L 48.46875 146.394531 C 46.679688 146.589844 45.046875 146.082031 43.695312 144.871094 C 42.34375 143.660156 41.640625 142.097656 41.640625 140.292969 L 41.640625 130.222656 C 41.640625 128.414062 42.34375 126.855469 43.695312 125.644531 C 45.046875 124.433594 46.679688 123.925781 48.46875 124.117188 Z M 237.144531 79.332031 L 138.109375 79.332031 C 136.988281 79.332031 135.953125 79.789062 135.230469 80.507812 C 134.546875 81.191406 134.109375 82.140625 134.109375 83.175781 L 134.109375 139.800781 C 134.109375 141.78125 134.933594 143.605469 136.25 144.941406 C 137.621094 146.308594 139.515625 147.152344 141.605469 147.152344 L 233.613281 147.152344 C 235.703125 147.152344 237.597656 146.308594 238.96875 144.941406 C 240.285156 143.625 241.109375 141.800781 241.109375 139.800781 L 241.109375 83.175781 C 241.109375 82.15625 240.671875 81.210938 239.988281 80.507812 C 239.265625 79.789062 238.230469 79.332031 237.109375 79.332031 Z M 237.144531 79.332031 " fill-opacity="1" fill-rule="evenodd"/></svg>